<?xml version="1.0" encoding="UTF-8" standalone="no"?>
<!-- Uploaded to: SVG Repo, www.svgrepo.com, Generator: SVG Repo Mixer Tools -->

<svg
   fill="#000000"
   version="1.1"
   id="Capa_1"
   width="800px"
   height="800px"
   viewBox="0 0 606.877 606.877"
   xml:space="preserve"
   sodipodi:docname="LetterBoxdle.svg"
   inkscape:version="1.4.2 (f4327f4, 2025-05-13)"
   xmlns:inkscape="http://www.inkscape.org/namespaces/inkscape"
   xmlns:sodipodi="http://sodipodi.sourceforge.net/DTD/sodipodi-0.dtd"
   xmlns="http://www.w3.org/2000/svg"
   xmlns:svg="http://www.w3.org/2000/svg"><defs
   id="defs10" /><sodipodi:namedview
   id="namedview10"
   pagecolor="#ffffff"
   bordercolor="#000000"
   borderopacity="0.25"
   inkscape:showpageshadow="2"
   inkscape:pageopacity="0.0"
   inkscape:pagecheckerboard="0"
   inkscape:deskcolor="#d1d1d1"
   inkscape:zoom="0.69208076"
   inkscape:cx="192.89656"
   inkscape:cy="374.95624"
   inkscape:window-width="1920"
   inkscape:window-height="1001"
   inkscape:window-x="-9"
   inkscape:window-y="-9"
   inkscape:window-maximized="1"
   inkscape:current-layer="layer2" />

<g
   inkscape:groupmode="layer"
   id="layer1"
   inkscape:label="Layer 1"><g
     id="g10">
	<g
   id="g9">
		<g
   id="g2">
			<path
   d="M58.64,280.154h162.654c32.058,0,58.14-26.082,58.14-58.14V59.36c0-32.059-26.082-58.14-58.14-58.14H58.64     C26.582,1.22,0.5,27.301,0.5,59.36v162.654C0.5,254.072,26.582,280.154,58.64,280.154z M43.34,59.36c0-8.45,6.85-15.3,15.3-15.3     h162.654c8.45,0,15.3,6.85,15.3,15.3v162.654c0,8.45-6.85,15.3-15.3,15.3H58.64c-8.45,0-15.3-6.85-15.3-15.3V59.36z"
   id="path1" />
			<path
   d="M221.294,280.654H58.64c-32.334,0-58.64-26.306-58.64-58.64V59.36C0,27.025,26.306,0.72,58.64,0.72h162.654     c32.334,0,58.64,26.306,58.64,58.64v162.654C279.934,254.348,253.628,280.654,221.294,280.654z M58.64,1.72     C26.857,1.72,1,27.577,1,59.36v162.654c0,31.783,25.857,57.64,57.64,57.64h162.654c31.783,0,57.64-25.857,57.64-57.64V59.36     c0-31.783-25.857-57.64-57.64-57.64H58.64z M221.294,237.813H58.64c-8.712,0-15.8-7.088-15.8-15.8V59.36     c0-8.712,7.088-15.8,15.8-15.8h162.654c8.712,0,15.8,7.088,15.8,15.8v162.654C237.094,230.726,230.006,237.813,221.294,237.813z      M58.64,44.56c-8.161,0-14.8,6.639-14.8,14.8v162.654c0,8.161,6.639,14.8,14.8,14.8h162.654c8.161,0,14.8-6.639,14.8-14.8V59.36     c0-8.161-6.639-14.8-14.8-14.8H58.64z"
   id="path2" />
		</g>
		<g
   id="g4">
			<path
   d="M548.238,1.22H385.584c-32.059,0-58.141,26.082-58.141,58.14v162.654c0,32.058,26.082,58.14,58.141,58.14h162.654     c32.059,0,58.139-26.082,58.139-58.14V59.36C606.377,27.301,580.297,1.22,548.238,1.22z M563.537,222.014     c0,8.45-6.85,15.3-15.299,15.3H385.584c-8.449,0-15.301-6.85-15.301-15.3V59.36c0-8.45,6.852-15.3,15.301-15.3h162.654     c8.449,0,15.299,6.85,15.299,15.3V222.014z"
   id="path3" />
			<path
   d="M548.238,280.654H385.584c-32.335,0-58.641-26.306-58.641-58.64V59.36c0-32.334,26.306-58.64,58.641-58.64h162.654     c32.333,0,58.639,26.306,58.639,58.64v162.654C606.877,254.348,580.571,280.654,548.238,280.654z M385.584,1.72     c-31.783,0-57.641,25.857-57.641,57.64v162.654c0,31.783,25.857,57.64,57.641,57.64h162.654c31.782,0,57.639-25.857,57.639-57.64     V59.36c0-31.783-25.856-57.64-57.639-57.64H385.584z M548.238,237.813H385.584c-8.713,0-15.801-7.088-15.801-15.8V59.36     c0-8.712,7.088-15.8,15.801-15.8h162.654c8.712,0,15.799,7.088,15.799,15.8v162.654     C564.037,230.726,556.95,237.813,548.238,237.813z M385.584,44.56c-8.161,0-14.801,6.639-14.801,14.8v162.654     c0,8.161,6.64,14.8,14.801,14.8h162.654c8.16,0,14.799-6.639,14.799-14.8V59.36c0-8.161-6.639-14.8-14.799-14.8H385.584z"
   id="path4" />
		</g>
		<g
   id="g6">
			<path
   d="M58.64,605.657h162.654c32.058,0,58.14-26.08,58.14-58.139V384.864c0-32.059-26.082-58.141-58.14-58.141H58.64     c-32.058,0-58.14,26.082-58.14,58.141v162.654C0.5,579.577,26.582,605.657,58.64,605.657z M43.34,384.864     c0-8.449,6.85-15.301,15.3-15.301h162.654c8.45,0,15.3,6.852,15.3,15.301v162.654c0,8.449-6.85,15.299-15.3,15.299H58.64     c-8.45,0-15.3-6.85-15.3-15.299V384.864z"
   id="path5" />
			<path
   d="M221.294,606.157H58.64C26.306,606.157,0,579.852,0,547.519V384.864c0-32.335,26.306-58.641,58.64-58.641h162.654     c32.334,0,58.64,26.306,58.64,58.641v162.654C279.934,579.852,253.628,606.157,221.294,606.157z M58.64,327.224     C26.857,327.224,1,353.081,1,384.864v162.654c0,31.782,25.857,57.639,57.64,57.639h162.654c31.783,0,57.64-25.856,57.64-57.639     V384.864c0-31.783-25.857-57.641-57.64-57.641H58.64z M221.294,563.317H58.64c-8.712,0-15.8-7.087-15.8-15.799V384.864     c0-8.713,7.088-15.801,15.8-15.801h162.654c8.712,0,15.8,7.088,15.8,15.801v162.654     C237.094,556.23,230.006,563.317,221.294,563.317z M58.64,370.063c-8.161,0-14.8,6.64-14.8,14.801v162.654     c0,8.16,6.639,14.799,14.8,14.799h162.654c8.161,0,14.8-6.639,14.8-14.799V384.864c0-8.161-6.639-14.801-14.8-14.801H58.64z"
   id="path6" />
		</g>
		<g
   id="g8">
			<path
   d="M548.238,326.724H385.584c-32.059,0-58.141,26.082-58.141,58.141v162.654c0,32.059,26.082,58.139,58.141,58.139h162.654     c32.059,0,58.139-26.08,58.139-58.139V384.864C606.377,352.806,580.297,326.724,548.238,326.724z M563.537,547.519     c0,8.449-6.85,15.299-15.299,15.299H385.584c-8.449,0-15.301-6.85-15.301-15.299V384.864c0-8.449,6.852-15.301,15.301-15.301     h162.654c8.449,0,15.299,6.852,15.299,15.301V547.519z"
   id="path7" />
			<path
   d="M548.238,606.157H385.584c-32.335,0-58.641-26.306-58.641-58.639V384.864c0-32.335,26.306-58.641,58.641-58.641h162.654     c32.333,0,58.639,26.306,58.639,58.641v162.654C606.877,579.852,580.571,606.157,548.238,606.157z M385.584,327.224     c-31.783,0-57.641,25.857-57.641,57.641v162.654c0,31.782,25.857,57.639,57.641,57.639h162.654     c31.782,0,57.639-25.856,57.639-57.639V384.864c0-31.783-25.856-57.641-57.639-57.641H385.584z M548.238,563.317H385.584     c-8.713,0-15.801-7.087-15.801-15.799V384.864c0-8.713,7.088-15.801,15.801-15.801h162.654c8.712,0,15.799,7.088,15.799,15.801     v162.654C564.037,556.23,556.95,563.317,548.238,563.317z M385.584,370.063c-8.161,0-14.801,6.64-14.801,14.801v162.654     c0,8.16,6.64,14.799,14.801,14.799h162.654c8.16,0,14.799-6.639,14.799-14.799V384.864c0-8.161-6.639-14.801-14.799-14.801     H385.584z"
   id="path8" />
		</g>
	</g>
</g><g
     inkscape:groupmode="layer"
     id="layer2"
     inkscape:label="Layer 2"><g
       style="fill:#000000"
       id="g12"
       transform="matrix(4.4771262,0,0,3.851111,398.31079,73.631313)"><g
         id="g1">
	<path
   d="M 26,16 H 6 C 4.3,16 3,14.7 3,13 3,11.3 4.3,10 6,10 h 20 c 1.7,0 3,1.3 3,3 0,1.7 -1.3,3 -3,3 z"
   id="path1-9" />
</g><path
         d="M 26.7,14.3 C 26.6,14.1 26.3,14 26,14 H 6 C 5.7,14 5.4,14.1 5.3,14.3 5.1,14.6 5,14.8 5,15.1 l 2,16 C 7.1,31.6 7.5,32 8,32 h 5 c -0.5,0 -1,-0.4 -1,-0.9 l -1,-14 c 0,-0.6 0.4,-1 0.9,-1.1 0.6,0 1,0.4 1.1,0.9 l 1,14 c 0,0.6 -0.4,1 -0.9,1.1 0,0 0,0 -0.1,0 h 6 c 0,0 0,0 -0.1,0 -0.6,0 -1,-0.5 -0.9,-1.1 l 1,-14 c 0,-0.6 0.5,-1 1.1,-0.9 0.6,0 1,0.5 0.9,1.1 l -1,14 c 0,0.5 -0.5,0.9 -1,0.9 h 5 c 0.5,0 0.9,-0.4 1,-0.9 l 2,-16 c 0,-0.3 -0.1,-0.5 -0.3,-0.8 z"
         id="path2-4" /><g
         id="g3">
	<path
   d="m 25.8,12 v 0 H 6.2 C 5.8,12 5.4,11.7 5.3,11.3 5.1,10.9 5,10.5 5,10 5,8.5 5.8,7.2 7,6.5 7,6.4 7,6.2 7,6 7,3.8 8.8,2 11,2 11.5,2 12,2.1 12.4,2.3 13.1,0.9 14.4,0 16,0 17.6,0 18.9,0.9 19.6,2.3 20,2.1 20.5,2 21,2 c 2.2,0 4,1.8 4,4 0,0.2 0,0.4 0,0.5 1.2,0.7 2,2 2,3.5 0,0.5 -0.1,0.9 -0.2,1.3 -0.2,0.4 -0.5,0.7 -1,0.7 z M 7,10 h 18 c 0,0 0,0 0,0 C 25,9.1 24.4,8.3 23.5,8.1 23.2,8 23,7.8 22.9,7.6 22.8,7.3 22.8,7 22.9,6.8 23,6.5 23,6.2 23,6 23,4.9 22.1,4 21,4 20.5,4 20,4.2 19.7,4.5 19.4,4.8 19,4.8 18.7,4.7 18.3,4.6 18,4.2 18,3.9 17.9,2.8 17,2 16,2 15,2 14.1,2.8 14,3.9 14,4.3 13.7,4.6 13.4,4.8 13,4.9 12.6,4.9 12.4,4.6 12,4.2 11.5,4 11,4 9.9,4 9,4.9 9,6 9,6.2 9,6.5 9.1,6.7 9.2,7 9.2,7.3 9.1,7.5 9,7.8 8.8,8 8.5,8.1 7.6,8.3 7,9.1 7,10 Z"
   id="path3-8" />
</g></g><g
       style="fill:#000000"
       id="g11"
       transform="matrix(4.9999705,0,0,5.1925721,398.19576,381.43818)"><path
         d="m 29.6,3.8 c -0.4,-0.4 -1,-0.4 -1.4,0 -0.4,0.4 -0.4,1 0,1.4 1.1,1.1 1.1,2.8 0,3.9 -1,1 -2.8,1 -3.9,0 L 23,7.8 c 0,0 0,0 0,0 C 20.7,4.9 17.1,3 13,3 5.8,3 0,8.8 0,16 c 0,7.2 5.8,13 13,13 7.2,0 13,-5.8 13,-13 0,-1.5 -0.3,-2.9 -0.7,-4.2 0.3,0.1 0.7,0.1 1,0.1 1.3,0 2.5,-0.5 3.3,-1.4 1.9,-1.9 1.9,-4.9 0,-6.7 z M 5.9,8.9 C 7,7.7 9,7.7 10.1,8.9 c 0,0 0,0 0,0 0,0 0,0 0,0 0.6,0.5 0.9,1.3 0.9,2.1 0,0.8 -0.3,1.6 -0.9,2.1 C 9.6,13.7 8.8,14 8,14 7.2,14 6.4,13.7 5.9,13.1 5.3,12.6 5,11.8 5,11 5,10.2 5.3,9.4 5.9,8.9 Z m 4.2,14.2 C 9.6,23.7 8.8,24 8,24 7.2,24 6.4,23.7 5.9,23.1 5.3,22.6 5,21.8 5,21 c 0,-0.8 0.3,-1.6 0.9,-2.1 0,0 0,0 0,0 0,0 0,0 0,0 1.1,-1.1 3.1,-1.1 4.2,0 0.6,0.6 0.9,1.3 0.9,2.1 0,0.8 -0.3,1.6 -0.9,2.1 z m 0.8,-5 C 10.3,17.6 10,16.8 10,16 c 0,-0.8 0.3,-1.6 0.9,-2.1 1.1,-1.1 3.1,-1.1 4.2,0 0,0 0,0 0,0 0,0 0,0 0,0 0.6,0.6 0.9,1.3 0.9,2.1 0,0.8 -0.3,1.6 -0.9,2.1 -0.5,0.6 -1.3,0.9 -2.1,0.9 -0.8,0 -1.6,-0.3 -2.1,-0.9 z m 9.2,5 C 19.6,23.7 18.8,24 18,24 c -0.8,0 -1.6,-0.3 -2.1,-0.9 0,0 0,0 0,0 0,0 0,0 0,0 C 15.3,22.6 15,21.8 15,21 c 0,-0.8 0.3,-1.6 0.9,-2.1 1.1,-1.1 3.1,-1.1 4.2,0 0.6,0.6 0.9,1.3 0.9,2.1 0,0.8 -0.3,1.6 -0.9,2.1 z m 0,-10 c 0,0 0,0 0,0 0,0 0,0 0,0 C 19.6,13.7 18.8,14 18,14 17.2,14 16.4,13.7 15.9,13.1 15.3,12.6 15,11.8 15,11 15,10.2 15.3,9.4 15.9,8.9 17,7.8 19,7.8 20.1,8.9 20.7,9.4 21,10.2 21,11 c 0,0.8 -0.3,1.6 -0.9,2.1 z"
         id="path1-0" /></g><g
       style="fill:#000000"
       id="g13"
       transform="matrix(4.646701,0,0,4.2034139,65.70747,392.94676)"><path
         d="M 31.6,5.2 C 31.4,5 31,5 30.7,5 21.2,7.6 1.3,5 1.1,5 0.8,5 0.6,5.1 0.3,5.2 0.1,5.4 0,5.7 0,6 v 20 c 0,0.3 0.1,0.6 0.4,0.8 C 0.6,27 1,27 1.3,27 c 9.6,-2.6 19.8,-2.6 29.5,0 0.1,0 0.2,0 0.3,0 0.2,0 0.4,-0.1 0.6,-0.2 0.2,-0.2 0.4,-0.5 0.4,-0.8 V 6 C 32,5.7 31.9,5.4 31.6,5.2 Z M 4,19 C 4,19.6 3.6,20 3,20 2.4,20 2,19.6 2,19 v -6 c 0,-0.6 0.4,-1 1,-1 0.6,0 1,0.4 1,1 z m 9,0 c 0,0.6 -0.4,1 -1,1 -0.6,0 -1,-0.4 -1,-1 v -3.6 l -1.3,1.3 c -0.4,0.4 -1,0.4 -1.4,0 L 7,15.4 V 19 C 7,19.6 6.6,20 6,20 5.4,20 5,19.6 5,19 V 13 C 5,12.6 5.2,12.2 5.6,12.1 6,11.9 6.4,12 6.7,12.3 L 9,14.6 11.3,12.3 C 11.6,12 12,11.9 12.4,12.1 12.8,12.3 13,12.6 13,13 Z m 8.4,0.9 C 21.3,20 21.2,20 21,20 20.6,20 20.3,19.8 20.1,19.4 L 19.9,19 H 18 c -0.6,0 -1,-0.4 -1,-1 0,-0.6 0.4,-1 1,-1 h 0.9 L 18,15.2 15.9,19.4 c -0.2,0.5 -0.8,0.7 -1.3,0.4 -0.5,-0.2 -0.7,-0.8 -0.4,-1.3 l 3,-6 c 0.3,-0.7 1.5,-0.7 1.8,0 l 3,6 c 0.1,0.5 -0.1,1.1 -0.6,1.4 z m 8.4,-1.5 c 0.4,0.4 0.3,1.1 -0.1,1.4 -0.2,0.1 -0.5,0.2 -0.7,0.2 -0.3,0 -0.6,-0.1 -0.8,-0.4 l -1.7,-2.1 -1.7,2.1 C 24.6,19.9 24.3,20 24,20 23.8,20 23.5,19.9 23.4,19.8 23,19.4 22.9,18.8 23.3,18.4 l 2,-2.4 -2,-2.4 c -0.4,-0.4 -0.3,-1.1 0.1,-1.4 0.4,-0.3 1.1,-0.3 1.4,0.1 l 1.7,2.1 1.7,-2.1 c 0.4,-0.4 1,-0.5 1.4,-0.1 0.4,0.4 0.5,1 0.1,1.4 l -2,2.4 z"
         id="path1-8" /></g><g
       style="fill:#000000"
       id="g14"
       transform="matrix(5.2074772,0,0,4.7608992,55.992848,58.24994)"><path
         d="M 29.6,13 H 2.4 C 1.1,13 0,14.1 0,15.4 V 25 c 0,1.7 1.3,3 3,3 h 8.8 c 1.1,0 2.1,-0.4 2.8,-1.2 0.8,-0.8 2.1,-0.8 2.8,0 0.8,0.8 1.8,1.2 2.8,1.2 H 29 c 1.7,0 3,-1.3 3,-3 V 15.4 C 32,14.1 30.9,13 29.6,13 Z M 14,23 c 0,0.6 -0.4,1 -1,1 H 5 C 4.4,24 4,23.6 4,23 v -5 c 0,-0.6 0.4,-1 1,-1 h 8 c 0.6,0 1,0.4 1,1 z m 14,0 c 0,0.6 -0.4,1 -1,1 h -8 c -0.6,0 -1,-0.4 -1,-1 v -5 c 0,-0.6 0.4,-1 1,-1 h 8 c 0.6,0 1,0.4 1,1 z"
         id="path1-2" /><g
         id="g2-4">
	<path
   d="m 1,15.3 c -0.1,0 -0.2,0 -0.2,-0.1 C 0.7,15.1 0.7,15 0.8,14.9 L 4.7,8.3 C 6,6.1 8.4,4.8 11,4.8 c 0.1,0 0.3,0.1 0.3,0.3 v 3 c 0,0.1 -0.1,0.3 -0.3,0.3 -1.6,0 -3,1.2 -3.2,2.8 l -0.4,3 c 0,0.1 -0.1,0.2 -0.2,0.2 L 1,15.3 c 0,-0.1 0,0 0,0 z M 4.9,8.4 Z"
   id="path2-5" />
</g><g
         id="g3-5">
	<path
   d="m 31,15.3 c 0,0 0,-0.1 0,0 l -6.2,-1 c -0.1,0 -0.2,-0.1 -0.2,-0.2 l -0.4,-3 C 24,9.4 22.6,8.3 21,8.3 20.9,8.3 20.7,8.2 20.7,8 V 5 c 0,-0.1 0.1,-0.3 0.3,-0.3 2.6,0 5,1.4 6.3,3.6 l 3.9,6.6 c 0.1,0.1 0,0.2 0,0.3 0,0 -0.1,0.1 -0.2,0.1 z"
   id="path3-1" />
</g></g></g></g></svg>
